<?xml version="1.0" encoding="UTF-8"?>
<svg xmlns="http://www.w3.org/2000/svg" xmlns:xlink="http://www.w3.org/1999/xlink" version="1.1" id="Capa_1" x="0px" y="0px" viewBox="0 0 512.197 512.197" style="enable-background:new 0 0 512.197 512.197;" xml:space="preserve" width="512" height="512">
<g>
	<g>
		
			<ellipse transform="matrix(0.7071 -0.7071 0.7071 0.7071 -63.2645 350.1945)" style="fill:none;stroke:#000000;stroke-width:30;stroke-linecap:round;stroke-linejoin:round;stroke-miterlimit:10;" cx="391.09" cy="251.464" rx="106.107" ry="106.107"/>
		<path style="fill:none;stroke:#000000;stroke-width:30;stroke-linecap:round;stroke-linejoin:round;stroke-miterlimit:10;" d="&#10;&#9;&#9;&#9;M425.215,251.464c0,18.847-15.278,34.125-34.125,34.125c-18.847,0-34.125-15.278-34.125-34.125"/>
	</g>
	<path style="fill:none;stroke:#000000;stroke-width:30;stroke-linecap:round;stroke-linejoin:round;stroke-miterlimit:10;" d="&#10;&#9;&#9;M135.616,213.439l-98.312-83.68C-9.271,90.583,22.726,16.433,81.475,15.259c21.708-0.589,41.201,8.83,54.141,23.917&#10;&#9;&#9;c12.938-15.085,32.427-24.504,54.132-23.918c58.832,1.178,90.746,75.442,44.153,114.618&#10;&#9;&#9;C233.902,129.876,135.616,213.439,135.616,213.439z"/>
	<g>
		<g>
			<g>
				<g>
					
						<rect x="15.296" y="379.191" style="fill:none;stroke:#000000;stroke-width:30;stroke-linecap:round;stroke-linejoin:round;stroke-miterlimit:10;" width="65.936" height="117.706"/>
				</g>
			</g>
		</g>
		<path style="fill:none;stroke:#000000;stroke-width:30;stroke-linecap:round;stroke-linejoin:round;stroke-miterlimit:10;" d="&#10;&#9;&#9;&#9;M81.232,496.964"/>
		<path style="fill:none;stroke:#000000;stroke-width:30;stroke-linecap:round;stroke-linejoin:round;stroke-miterlimit:10;" d="&#10;&#9;&#9;&#9;M81.232,496.964h125.852c20.217,0,38.625-11.648,47.281-29.919l25.867-54.602c11.867-25.051-6.36-53.934-34.079-54.002&#10;&#9;&#9;&#9;l-49.014-0.149l9.107-39.246c4.454-19.195-7.752-38.298-27.042-42.32h-10.914l-20.711,43.722&#10;&#9;&#9;&#9;c-6.228,13.147-15.85,24.395-27.875,32.583l-38.471,26.195"/>
	</g>
</g>















</svg>
